<?xml version="1.0" encoding="utf-8"?>
<!-- Generator: Adobe Illustrator 24.0.1, SVG Export Plug-In . SVG Version: 6.00 Build 0)  -->
<svg version="1.1" id="Layer_1" xmlns="http://www.w3.org/2000/svg" xmlns:xlink="http://www.w3.org/1999/xlink" x="0px" y="0px"
	 viewBox="0 0 612 792" style="enable-background:new 0 0 612 792;" xml:space="preserve">
<style type="text/css">
	*{
		position: absolute;
		top: -25%;
		background-color: black;
		height: 40%;
	}
	.st0{fill:#8A629B;}
	.st1{fill:#2D114B;}
	.st2{fill:#E5E5E5;}
	.st3{fill:#7B1A55;}
	.st4{fill:#ED99C2;}
	.st5{fill:#7B1A55;}
	.st6{fill:#F8F8D8;}
	.st7{fill:#F8F8D8;}
	.st8{fill:#FFFFFF;}
	.st9{fill:none;stroke:#CE8E2A;stroke-width:0.25;stroke-miterlimit:10;}
	.st10{fill:none;stroke:#FDFAD3;stroke-miterlimit:10;}
	.st11{fill:#FFFFFF;}
	.st12{stroke:#8A629B;}
	.st13{fill:#FFFFFF;}
	.st14{fill:#FFF5E2;}
	.st15{fill:#FFF0C1;}
	.st16{fill:#D64D91;}
	.st17{fill:#F4EEBD;}
	.st18{fill:#080908;}
	.st19{fill:none;stroke:#080908;stroke-width:2;stroke-miterlimit:10;}
	.st20{fill:#080908;}
	.st21{fill:#601545;}
</style>
<circle class="st0" cx="11.1" cy="-4.5" r="3.5"/>
<g>
	<g>
		<g>
			<rect x="98.3" y="208.6" class="st1" width="423.8" height="287"/>
			<polygon class="st2" points="98.3,208.6 98.3,415 98.3,495.6 237,495.6 304.7,208.6 			"/>
		</g>
		<path class="st0" d="M131.3,392c0,0,42.9-8.9,34,14.8s-5.2,34,8.9,31.1c14.1-3,33.3-14.5,30.3-23.5s-4.4-19.4,4.4-14.2
			c8.9,5.2,25.1,13.3,18.5,0c-6.7-13.3-10.9-46.6,1.6-33.3c12.5,13.3,28.8,38.5,20.6,54c-8.1,15.5-5.2,30.3,11.8,12.6
			c17-17.8,29.8-21,30.3-7.4c0.5,11.1-17.8,14.1-20.7,33.3c-1.7,11.1-1.1,35.7,0.4,22.4s11.7-31.3,23.1-18c11.3,13.3-6.2,29.9,0,29
			c6.2-0.9,10.3,2.8,10.3,2.8H98.3c0,0,0-62.9,0-80.6S131.3,392,131.3,392z"/>
		<circle class="st0" cx="180.6" cy="397" r="5"/>
	</g>
	<g>
		<g>
			<path class="st3" d="M255,333.8c-4.7,5.1-14.6-7.1-14.5-0.1c0.1,12-6.6,7.8-6.8,2.8s-2.6-15.3-4.8-15.3c-2.1,0-49,15.3-62.3,18.3
				c-13.3,3.1-31.1-7.7-40.8-15.7c-9.7-8,0.7-25.5-1.3-26.6c-2-1.1-1.1-9.8-1.1-9.8l0,0l0.1,0l0.1,0l0.1,0c0.3,0.1,0.9,0.4,1.8,0.8
				l0.2,0.1l0.2,0.1l0,0l9.7,4.1l11.9,1.8l0.1,0c0.9,0.1,1.7,0.3,2.6,0.4l0.1,0l14.5,2.2l3.5-0.7h0c2.4-0.1,4.2-0.4,5-1l0,0
				c0,0,0.1,0,0.1-0.1c0.6-0.6,0.3-1.5-1.2-2.7c-0.4-0.3-0.8-0.7-1.2-1.1c-3.2-4.1-9.4-16.4-9.8-17.2c0,0,0,0,0,0c0,0,0,0,0,0l0,0
				l-8.4-24.3l0,0l0.4-15.3c1.8-6.3,5.6-7.6,16.7-13.3c11-5.8,23.2,13.2,43.6,28c0.1,0.1,0.3,0.2,0.4,0.3c-2.3,0.4-3.8,0.6-3.8,0.6
				l4.3,5.1c0,0,1.4-0.7,3.6-1.7c16,19,16.5,65.5,17.7,65.9c1.3,0.5,23,4.9,23,4.9S259.7,328.7,255,333.8z"/>
			<path class="st3" d="M152.7,249.9c0,0-1.4-9,0.4-15.3L152.7,249.9z"/>
			<path class="st3" d="M147.4,294.4l-11.9-1.8l-9.7-4.1c2.1,0.9,5.3,2.1,8.9,3.3C136.6,292.5,141.6,293.5,147.4,294.4z"/>
			<path class="st3" d="M161.1,274.2c-4.8-11.4-8.3-23.7-8.4-24.3L161.1,274.2z"/>
			<path class="st3" d="M170.9,291.4c-3.4-3.6-6.8-10.3-9.8-17.2C161.5,275,167.8,287.3,170.9,291.4z"/>
			<path class="st3" d="M168.2,296.4l-3.5,0.7l-14.5-2.2C156.6,295.8,163.5,296.5,168.2,296.4z"/>
			<path class="st3" d="M173.2,295.4c0.1,0,0.1-0.1,0.1-0.1C173.3,295.4,173.2,295.4,173.2,295.4z"/>
			<path class="st3" d="M217.9,253.5c-2.2,1-3.6,1.7-3.6,1.7l-4.3-5.1c0,0,1.5-0.2,3.8-0.6C215.3,250.6,216.6,252,217.9,253.5z"/>
			<path class="st4" d="M173.2,295.4L173.2,295.4c-0.1-0.1-4.4-3-8.7-5.8c-4.4-2.9-13.8-28.1-14.7-32.1c-2.9-13,0.3-24,0.4-22.2
				c0.1-2.4,3-0.8,3-0.8l-0.4,15.3l0,0l8.4,24.3l0,0c0,0,0,0,0,0c0,0,0,0,0,0c0.4,0.8,6.6,13.1,9.8,17.2c2,2.7,2.4,3.6,2.4,3.8
				C173.3,295.4,173.2,295.4,173.2,295.4z"/>
			<path class="st4" d="M173.2,295.4l-5,1h0l-3.5,0.7l-14.5-2.2l-0.1,0l-2.6-0.4l-0.1,0l-11.9-1.8l-9.7-4.1l0,0l-0.2-0.1l-0.2-0.1
				l-1.8-0.8l-0.1,0l-0.1,0l-0.1,0l0,0c0,0,1.8-4.8,3.2-3.5c1.3,1.3,18.2,7.9,28.2,8.8C164.6,293.7,173,295.4,173.2,295.4z"/>
			<path class="st5" d="M237.1,241.3c-0.9,3-13,9.2-19.2,12.2c-2.2,1-3.6,1.7-3.6,1.7l-4.3-5.1c0,0,1.5-0.2,3.8-0.6
				c6.9-1.2,20.7-4.3,21.1-9.4c0.5-6.8-11-17.9-9.9-24.1c1.2-6.2-4.3-22-9.8-14.7c-5.5,7.3-7.4,5.7-7.4,5.7l-0.2-0.1l0,0l-0.4-0.3
				l-1.7-1.3l-0.8-0.6l-0.9-0.7l4.6-0.1c0,0,3.6-2.3,5.1-3.8c1.5-1.5,2.4-4.6,6.3-3.7c3.9,0.9,8.2,12.6,7.7,16.3
				c-0.5,3.7,1.1,10.5,5,14.7C236.3,231.6,238.4,237.2,237.1,241.3z"/>
			<g>
				<path class="st6" d="M201.9,215.1c-2.2,1.4-5.2,1.1-6.9-0.8c-2.2-2.5-1.6-6.2,1.1-8c0.8-0.5,5.9-0.6,6.1-0.6l0,0l3.5-1.3l0,0
					c-1,0,0.8-0.2,1.9,2.5c0.4,0.9-3,3-3.3,3.8c-0.6,1.2-0.7,2.3-0.8,2.4c0,0-0.1,0.7-0.1,0.7C201.7,215.2,202.6,214.7,201.9,215.1z
					"/>
				<path class="st7" d="M200,207.1"/>
				<path class="st8" d="M201.4,214.8c0,0-0.7,0-1.6,0c-1,0-2.2-0.1-2.6-0.5c-0.8-0.7-1.5-0.4-0.7,0.5
					C197.6,216,201.5,215.3,201.4,214.8z"/>
				<path class="st9" d="M206.4,204.9c0,0-4.8,2.1-5.5,2.3c-0.7,0.2-1.8,0.8-1.3,1.3s1.5,0.8,1.9,0.1c0.4-0.7,0-0.9,0-0.9
					s-0.4-0.3-0.9,0.3c-0.5,0.6-0.8,1.6,0.1,2c1,0.4,2.1-0.1,1.5-0.6c-0.7-0.6-1.7,0.6-1,1.3s1.7-0.1,1.9-0.7
					c0.1-0.4,4.2-3.3,4.3-3.5L206.4,204.9z"/>
				<line class="st10" x1="195.4" y1="200" x2="196" y2="201.8"/>
				<line class="st10" x1="191.1" y1="202.1" x2="192.8" y2="204"/>
				<line class="st10" x1="191.2" y1="209.5" x2="188.5" y2="209"/>
				<line class="st10" x1="194.3" y1="216.5" x2="192.7" y2="218.3"/>
				<line class="st10" x1="199.4" y1="219.3" x2="200.5" y2="221.5"/>
				<line class="st10" x1="203.4" y1="217.3" x2="204.6" y2="219.2"/>
				<line class="st10" x1="206.3" y1="216.7" x2="207.9" y2="217.3"/>
			</g>
		</g>
		<g>
			<path class="st11" d="M221.6,278.8c-4.8,2.8-9.9-1-12.2-5.1c-2.4-4-0.4-9.6,4.5-12.4c4.8-2.8,10.7-1.8,13,2.2
				C229.3,267.5,226.5,275.9,221.6,278.8z"/>
			
				<ellipse transform="matrix(0.8631 -0.505 0.505 0.8631 -106.8267 146.7151)" class="st12" cx="217.2" cy="270.4" rx="4.8" ry="5.7"/>
			
				<ellipse transform="matrix(0.8631 -0.505 0.505 0.8631 -105.9525 147.5015)" class="st13" cx="219.1" cy="269.2" rx="2.2" ry="3.8"/>
		</g>
		<path class="st5" d="M224.9,256.9c-1.2,1.2,8.4-0.3,8.5,2.9c0.2,5,0,9.9,0,9.9s0.9,0.3,2-3.3c1.1-3.6,1.1-8.4-2-10.1
			C230.2,254.5,224.9,256.9,224.9,256.9z"/>
		<path class="st5" d="M198.7,236.7c-0.3,0.9,4.7-3.2,5.8-1.8c1.7,2.2,3.2,4.4,3.2,4.4s0.6-0.2,0.1-2.2c-0.5-2-2.1-4.1-4.5-3.8
			C201,233.7,198.7,236.7,198.7,236.7z"/>
		<path class="st14" d="M150,236.1c0,0-22.4,12.1-23.2,17.4c-0.8,5.3-0.6,16.6-0.6,16.6l13.2-17.9l-4.2,14.8l10.9-9.9l-3,11.5
			l5.6-3.6l-1.1,6.9l3.9,0.1l-4.5,8.2l8.7,1.4l2.4,4.1l8.5,6.2c0,0-10.1-18.7-12.8-22C148.6,263.8,147.1,234.1,150,236.1z"/>
		<polygon class="st14" points="126.5,284 124.7,279.3 127,281 132.1,279.6 132.8,284.9 138.6,283.3 142.1,288.7 148.9,287.5 
			153.4,290.6 155.5,289.4 157.2,291.2 166.5,292.7 173.2,295.4 159.3,293.3 145.2,290.9 132.2,286.6 		"/>
		<polygon class="st15" points="126.2,270 132.7,265.8 134.1,268.7 141,267.1 141.1,272.5 147.4,268.2 148.7,265 143.1,268.6 
			146.1,257.1 135.2,267 139.4,252.2 		"/>
		<path class="st16" d="M132.1,279.6l0.7,5.3l5.8-1.6l3.6,5.4l7-2.6l4.3,4.5l2-1.1l1.8,1.8l9.2,1.5l6.7,2.7l-8.7-5.8l-6.5-2.5
			l-4.6-4c0,0-8-3.6-10.9-3.5c-3,0-6.8-2.6-10.1-1.7C129,278.7,132.1,279.6,132.1,279.6z"/>
		<polygon class="st17" points="124.7,279.3 129.9,276.9 132.3,277.8 130.7,279.3 		"/>
		<polygon class="st17" points="132.3,277.8 136.1,275.9 138.6,278.3 		"/>
		
			<ellipse transform="matrix(0.7533 -0.6576 0.6576 0.7533 -110.5596 186.3309)" class="st18" cx="193.1" cy="240.5" rx="2.1" ry="1.1"/>
		<path class="st19" d="M189.6,240.2c0,0-0.9,3.3,3,3.2"/>
		<path class="st20" d="M207.4,296.6c-7,9-17.5,16.1-17.5,16.1s1,0.2,4-1.2c1.1-0.5,3.4-1.5,3.9-2L207.4,296.6z"/>
		<path class="st20" d="M196.9,313.6c0.8-0.3,2.5-0.9,2.9-1.2l7-8"/>
		<path class="st20" d="M200.9,316.7c0.6-0.2,1.9-0.6,2.2-0.9l5.3-5.8"/>
		<path class="st3" d="M177.9,325.2c0,0,7.3,22.6,13.1,26.1c6,3.6,12.3,3.6,15.2-3.4c2.8-6.9-1.9-8.9-5.7-9
			c-3.8-0.1-16.2-3.7-16-8.9c0.2-5.2,0.2-5.2,0.2-5.2L177.9,325.2z"/>
		<path class="st21" d="M143.9,294c0,0-0.3,15.8,11.6,23.5c11.9,7.8,22.3,7.6,22.3,7.6l3.6,10.3l-15.1,4.2c0,0-8.7,1.5-15.9-1.4
			c-7.2-2.9-16.7-7.3-21.8-11.8c0,0-9.2-4.7-7.2-14.2c2-9.5,2.8-14.9,2.8-14.9s-2.5-6.5-0.9-9.8C124.1,286.3,143.9,294,143.9,294z"
			/>
		<path class="st21" d="M188.7,327.2c0,0-4.3,6.7-2.2,6.4c2.1-0.3,16.3-4.6,16.3-4.6S190,330,188.7,327.2z"/>
		<path class="st21" d="M173.8,337.6c0,0-2.6,11.8-4.4,11.5c-1.8-0.3-2.7,0.2-5.4,2.3c-3.3,2.6-0.7,9.6,8,7.4
			c8.6-2.3,5.4-22.1,5.4-22.1L173.8,337.6z"/>
		<path class="st21" d="M242,320.9l16.6,3.4c0,0-0.3,6.6-1.2,7.1s-2.6,3.7-5.7,3.7c-3.4,0.1-7.9-3.2-8.9-3.4c-1-0.2-2.3-1.2-2.5,2
			c-0.2,3.2,0.3,6.6-1.7,7.2s-4.8-0.8-5.1-4.4s-0.2-3.8-1-6.8c-0.8-3-0.5-2.4-1.1-4.1c-0.6-1.7,8-5.3,8-5.3L242,320.9z"/>
	</g>
	<path class="st0" d="M111.6,350.8c0,0-20.4,16.3-21.6-5.4c-1.2-21.7,7.4-34.9,16.7-31.8s12.3,13.3,4.9,15.8
		c-7.4,2.5-18,3.7-14.8,13.2C99.9,352.1,111.6,350.8,111.6,350.8z"/>
	<path class="st0" d="M262.4,267c0,0,31.4,12.1,33.9,21.2c2.5,9.1,23.7,14.7,23.7,6.6c0-8.1,0.7-11.8-10.9-18.2
		C297.7,270.1,262.4,267,262.4,267z"/>
	<path class="st0" d="M89.8,373.9c0,0,0.8-0.3,2.2-0.8c5.9-2.2,21.9-8.7,22-14.1c0.1-6.6,30-8.8,10.5,2.9
		C105.1,373.8,89.8,373.9,89.8,373.9z"/>
	<path class="st0" d="M288.1,309.2c0.6,10.1-3.8,16.6-0.4,19.7c1.3,1.2,3.5,1.6,4.7,0.9c2.7-1.7,0.4-8.7,1.3-9
		c0.9-0.3,5.9,6.6,4.7,14.1c-0.6,3.5-2.2,5.5-9.4,13.7c-11.1,12.7-13.1,14.5-12.4,16.7c1.2,3.9,6.2,9.5,12.5,6.8
		c6.3-2.7,12.2-12.9,14.4-19.7c1.1-3.5,3.8-12,2.1-23.1c-3.1-21.3-19.6-35.7-21.4-34.6C283.3,295.2,287.6,299.9,288.1,309.2z"/>
	<circle class="st0" cx="273.8" cy="284.7" r="3.9"/>
	<circle class="st0" cx="123.8" cy="346" r="2.4"/>
</g>
</svg>
