<?xml version="1.0" encoding="utf-8"?>
<!-- Generator: Adobe Illustrator 24.0.1, SVG Export Plug-In . SVG Version: 6.00 Build 0)  -->
<svg version="1.1" id="Layer_1" xmlns="http://www.w3.org/2000/svg" xmlns:xlink="http://www.w3.org/1999/xlink" x="0px" y="0px"
	 viewBox="0 0 1280 1024" style="enable-background:new 0 0 1280 1024;" xml:space="preserve">
<style type="text/css">
	.st0{fill:#f4cae0;stroke:#EC0868;stroke-miterlimit:10;}
</style>
<path class="st0" d="M852.5,645.5c-0.13-2.93-0.41-4.9-0.84-8.52c-5.88-48.93-24.82-63.98-20.16-92.48c2.1-12.85,6.13-10.84,7-20
	c4.72-49.52-116.59-68.25-136-142c-10.08-38.29,17.13-46.04,12-83c-12.13-87.43-215.3-88.01-228-173c-4.56-30.55,13.29-86.66,51-116
	c8.75-6.81,13.05-7.88,13-11c0-0.31-0.06-0.63-0.15-0.96c-31.66,0.99-63.33,1.27-95,1.2c-55.63-0.12-111.26-0.9-166.89-1.22
	c-16.77-0.1-33.51-0.75-50.24-1.67c-47.9,2.27-95.98,0.89-144.05-0.57C66.4-4.4,38.56-3.82,10.78-4.69C9-3.31,7.24-1.93,5.5-0.5
	C2.81,1.71,0.21,3.98-2.35,6.29c0.31,1.75,0.48,3.48,0.47,5.17c-0.06,24.59-1.73,49.1-2.66,73.65c-0.21,13.69,0.15,27.38,1.75,41
	c0.86,7.32,0.04,14.44-2.05,21.19c0.62,20.87,1.53,41.74,2.14,62.62c0.5,16.78,0.79,33.58,0.56,50.37
	c-0.25,18.48-1.47,36.85-2.28,55.27c0.02,14.58,1.58,29.06,3.45,43.52c0.78,6,0.33,11.91-1.03,17.6c0.84,2.97,1.5,5.99,1.95,9
	c1.01,6.69,0.16,14.04-1.95,21.03c1.31,3.92,2.26,7.95,2.87,11.99c1.32,8.77-0.52,18.69-4.29,27.44c0.41,5.32-0.24,10.96-1.7,16.44
	c0.91,5.95,1.7,11.93,2.18,17.99c1.24,15.43,1.51,30.93,1.31,46.4c-0.42,33.16-2.58,66.24-3.75,99.37
	c-0.1,4.77-0.17,9.55-0.18,14.32c0.15,1.43,0.23,2.86,0.27,4.27C51.85,767.88,125.08,857.5,181.5,858.5
	c66.48,1.18,118.28-120.49,199-101c46.95,11.34,41.42,55.39,101,88c83.96,45.95,202.08,17.08,276-40c31.13-24.04,51.11-50.51,63-69
	C848.96,697.39,853.43,666.29,852.5,645.5z"/>
</svg>
