<svg id="b3d864f8-84bf-4ad6-ac45-a7174feef3c9" xmlns="http://www.w3.org/2000/svg" viewBox="0 0 839.39 834.65"><defs><style>.cls-1,.cls-2{fill:none;stroke-miterlimit:10;}.cls-1{stroke:#2f2e41;}.cls-2{stroke:#3f3d56;}.cls-3{fill:#57b894;}.cls-4{fill:#f92689;}.cls-5{fill:#2f2e41;}.cls-6{fill:#ffc1c7;}.cls-7{opacity:0.1;isolation:isolate;}.cls-8{fill:#f2f2f2;}</style></defs><title>svg2</title><path class="cls-1" d="M569.35,224.37q15.1,8,29.54,16.32"/><path class="cls-1" d="M381.88,191.42c43.94,9.5,91.91,25.9,140.24,49.05a670.9,670.9,0,0,1,100.1,58.75"/><line class="cls-2" x1="235.63" y1="832.57" x2="686.16" y2="832.57"/><path class="cls-1" d="M340.77,184.39c13.2,1.62,27,4,41.11,7"/><path class="cls-1" d="M211.56,322.15c-24.4-35.69-32.78-69.42-20.25-95.59,13.87-28.94,51-43.74,101.27-44.83"/><path class="cls-1" d="M725.25,401.89c20.34,32.73,26.64,63.42,15,87.63-10.21,21.31-33,35-64.4,41.1"/><path class="cls-1" d="M622.22,299.22A497.7,497.7,0,0,1,679.84,347"/><path class="cls-1" d="M198.05,139.89c40.49-8.7,92.89-7.15,151.49,4.4"/><path class="cls-1" d="M787.39,401.89c18.12,26.48,29.27,52.1,32.19,75.44"/><path class="cls-1" d="M598.89,240.69q27.27,15.78,51.9,32.62"/><path class="cls-2" d="M624.94,630.71a25.09,25.09,0,0,0-21.61,15.11c-5.4,13.07,1.56,28.41,12,37.93s23.86,15,36,22.13c16.38,9.61,31.09,23,39.28,40.08s9.07,38.35-.56,54.71c-8.94,15.19-25.19,24.28-40.69,32.66"/><ellipse class="cls-3" cx="638.71" cy="631.85" rx="19.09" ry="9.27"/><ellipse class="cls-3" cx="653.98" cy="692.94" rx="19.09" ry="9.27"/><ellipse class="cls-3" cx="619.07" cy="702.76" rx="19.09" ry="9.27"/><ellipse class="cls-3" cx="673.62" cy="754.03" rx="19.09" ry="9.27"/><ellipse class="cls-3" cx="711.8" cy="754.03" rx="19.09" ry="9.27"/><path class="cls-4" d="M522.64,270.65H533.4s9.85,76.18,2.68,83.35-26.88,11.65-29.57,0,0-54.67,0-54.67Z"/><ellipse class="cls-5" cx="452.29" cy="204.33" rx="65.42" ry="76.63"/><path class="cls-6" d="M437.5,218.67s3.59,29.57-7.17,35.85,12.55,42.12,12.55,42.12l27.78,7.17,18.82-26-3.58-26.89s-21.51-21.51-11.65-41.23Z"/><path class="cls-7" d="M437.5,218.67s3.59,29.57-7.17,35.85,12.55,42.12,12.55,42.12l27.78,7.17,18.82-26-3.58-26.89s-21.51-21.51-11.65-41.23Z"/><path class="cls-6" d="M397.17,539.71s-10.75,97.69,0,121,39.44,88.72,39.44,88.72l-9,18.82,24.2-5.37,9.86-18.82s-11.65-45.71-13.44-61.84S433,636.5,433,636.5l25.09-106.65Z"/><path class="cls-6" d="M482.31,523.38s.9,98.58,7.17,113.87L485.9,770.79l19.71,2.63s28.68-112,24.2-138.91.9-123.68.9-123.68Z"/><circle class="cls-6" cx="452.29" cy="196.71" r="34.06"/><path class="cls-4" d="M568.35,535.93s-24.2,16.13-34.06,4.48S403.45,547.58,388.21,544s8.07-60.94,8.07-90.52c0-22.12,8-55.78,12.07-71.34,1.36-5.24,2.27-8.42,2.27-8.42s9.19-26.16,7.47-37a9.44,9.44,0,0,0-.67-2.39,5.15,5.15,0,0,0-.53-.91c-4.29-5.72-16.6-47.49-21.38-65.42a80.17,80.17,0,0,1-1.92-8.07c0-2.69,33.16-10.75,41.45-11.14s10.53,11.14,10.53,11.14c2.69,1.8,15.23,33.16,15.23,33.16l11.65-29.57s-.89-6.28-1.79-6.28,13.26-8.46,13.26-8.46,14.52,10.26,22.59,8.46,26.89,14.34,26.89,14.34-33.16,83.35-19.72,101.28S568.35,535.93,568.35,535.93Z"/><path class="cls-5" d="M459,740.46s-15.24,15.24-15.24,17l-12.54-5.38s-5.38,19.72-6.28,22.41-16.13,26.88-31.36,37.64,0,24.19,13.44,21.51,47.5-33.16,47.5-33.16,23.3,0,31.37-17.93C485.9,782.58,464.39,738.67,459,740.46Z"/><path class="cls-5" d="M503.82,766.31s-23-16.73-24.51-1.2-1.48,49.59-1.48,49.59-7.17,22.41,15.24,19.72,24.19-9,24.19-9l-10.75-43V763.62Z"/><path class="cls-7" d="M416.89,333.38c-4.29-5.72-16.6-47.49-21.38-65.42h4.35s10.92,42.72,17.56,66.33A5.15,5.15,0,0,0,416.89,333.38Z"/><path class="cls-7" d="M476,392.53s-12.55.9-58.26-8.06a95.46,95.46,0,0,1-9.43-2.34c1.36-5.24,2.27-8.42,2.27-8.42s9.19-26.16,7.47-37c2.14,7.53,3.74,12.61,4.18,12.83,1.79.9,59.15,10.76,67.21,14.34S476,392.53,476,392.53Z"/><path class="cls-7" d="M492.17,275.24s24.72-3.05,26.25.95,7.81,42.75,10.5,47.71,3.58,35.76-7.17,36.75-25.1-9.93-22.41-18.87S492.17,275.24,492.17,275.24Z"/><path class="cls-6" d="M479.62,357.58s37.64,4.48,43.92,0,32.26-4.48,26.88,8.07-52,13.44-52,13.44H471.56Z"/><path class="cls-4" d="M399.86,261.69h-6.27s-12.55,2.68-10.76,42.12-10.75,65.42,34.95,74.38S476,386.26,476,386.26s21.51-25.1,13.44-28.68-65.42-13.44-67.21-14.34S399.86,261.69,399.86,261.69Z"/><path class="cls-6" d="M517.73,279.37s-15.7-58.91-28.25-58.91-26.88,2.69-16.13,14.34,24.2,24.2,25.09,30.47,4.48,15.24,4.48,15.24Z"/><path class="cls-4" d="M495.76,275.24s24.71-3.05,26.25.95,7.8,42.75,10.49,47.71,3.58,35.76-7.17,36.75-25.09-9.93-22.41-18.87S495.76,275.24,495.76,275.24Z"/><circle class="cls-5" cx="443.33" cy="164.45" r="32.26"/><path class="cls-1" d="M573.34,529.17c-50.07-8.25-106.71-26.19-163.85-53.56C344.43,444.45,289.31,406.12,250,367.39"/><path class="cls-1" d="M370.34,492.47c-44.8-23.21-85.35-49-120.32-75.87"/><circle class="cls-4" cx="53.7" cy="76.08" r="53.7"/><circle class="cls-1" cx="66.3" cy="54.2" r="53.7"/><circle class="cls-8" cx="800.31" cy="270.04" r="31.24"/><circle class="cls-1" cx="807.64" cy="257.31" r="31.24"/><circle class="cls-8" cx="230.36" cy="595.73" r="44.91"/><circle class="cls-1" cx="240.9" cy="577.43" r="44.91"/></svg>